<svg xmlns="http://www.w3.org/2000/svg" xmlns:xlink="http://www.w3.org/1999/xlink" xmlns:lucid="lucid" width="813.67" height="172.74"><g transform="translate(-44.999999999999986 -79.99999999999999)" lucid:page-tab-id="E8-aI-Tbmz1y"><path d="M0 0h1323.2v1870.4H0z" fill="#fff"/><path d="M203.13 229.5H99.53L65 164.75 99.53 100h103.6l34.54 64.75z" stroke="#fff" stroke-width="2" fill="#32a5ff"/><use xlink:href="#a" transform="matrix(1,-2.4492935982947064e-16,2.4492935982947064e-16,1,69.99999999999996,105.00000000000004) translate(21.595332031249995 48.146484375)"/><use xlink:href="#b" transform="matrix(1,-2.4492935982947064e-16,2.4492935982947064e-16,1,69.99999999999996,105.00000000000004) translate(16.689453125 66.146484375)"/><use xlink:href="#c" transform="matrix(1,-2.4492935982947064e-16,2.4492935982947064e-16,1,69.99999999999996,105.00000000000004) translate(124.70703125 66.146484375)"/><use xlink:href="#d" transform="matrix(1,-2.4492935982947064e-16,2.4492935982947064e-16,1,69.99999999999996,105.00000000000004) translate(32.89708984375 84.146484375)"/><use xlink:href="#e" transform="matrix(1,-2.4492935982947064e-16,2.4492935982947064e-16,1,69.99999999999996,105.00000000000004) translate(76.10412109375 84.146484375)"/><path d="M503.13 229.5h-103.6L365 164.75 399.53 100h103.6l34.54 64.75z" stroke="#fff" stroke-width="2" fill="#32a5ff"/><use xlink:href="#f" transform="matrix(1,-2.4492935982947064e-16,2.4492935982947064e-16,1,370,105.00000000000003) translate(38.297968749999995 55.646484375)"/><use xlink:href="#g" transform="matrix(1,-2.4492935982947064e-16,2.4492935982947064e-16,1,370,105.00000000000003) translate(16.194453125000003 73.646484375)"/><g><path d="M804.13 229.5h-103.6L666 164.75 700.53 100h103.6l34.54 64.75z" stroke="#fff" stroke-width="2" fill="#32a5ff"/></g><g><use xlink:href="#h" transform="matrix(1,-2.4492935982947064e-16,2.4492935982947064e-16,1,671.0000000000002,105) translate(43.19884765625 48.146484375)"/><use xlink:href="#i" transform="matrix(1,-2.4492935982947064e-16,2.4492935982947064e-16,1,671.0000000000002,105) translate(97.20763671875 48.146484375)"/><use xlink:href="#j" transform="matrix(1,-2.4492935982947064e-16,2.4492935982947064e-16,1,671.0000000000002,105) translate(5.8876953125 66.146484375)"/><use xlink:href="#k" transform="matrix(1,-2.4492935982947064e-16,2.4492935982947064e-16,1,671.0000000000002,105) translate(124.70703125 66.146484375)"/><use xlink:href="#l" transform="matrix(1,-2.4492935982947064e-16,2.4492935982947064e-16,1,671.0000000000002,105) translate(49.099726562499995 84.146484375)"/></g><g><path d="M349.08 165l-82.4 43.36-.15-46.3-.12-39.06z" fill="#ffeca9"/></g><g><path d="M650.08 165L601 190.8l-33.33 17.56-.14-46.3-.12-39.06z" fill="#ffeca9"/></g><defs><path fill="#fff" d="M1034 0L896-382H333L196 0H0l510-1349h217L1228 0h-194zM847-531c-77-225-157-447-231-674-69 231-154 451-232 674h463" id="m"/><path fill="#fff" d="M698-1104c312 3 392 244 392 558 0 315-82 566-392 566-169 0-277-65-331-184h-5c8 188 2 394 4 589H185V-858c0-76-1-156-6-224h175c6 52 9 120 10 178h4c58-122 150-202 330-200zm-49 991c225 0 255-203 255-433 0-225-32-419-253-419-236 0-285 192-285 441 0 237 53 411 283 411" id="n"/><path fill="#fff" d="M736-142h380V0H134v-142h422v-1200H267v-142h469v1342" id="o"/><path fill="#fff" d="M745-142h380V0H143v-142h422v-798H246v-142h499v940zM545-1292v-192h200v192H545" id="p"/><path fill="#fff" d="M631 20c-350 0-501-215-501-562 0-355 162-560 502-560 250 0 399 118 446 323l-192 14c-23-124-109-196-262-196-242 0-305 171-305 415 1 245 61 427 304 427 151 0 248-77 267-215l190 12C1039-107 883 20 631 20" id="q"/><path fill="#fff" d="M1000-272c3 95 12 159 101 161 21 0 41-3 59-7V-6c-44 10-86 16-139 16-141 2-191-84-197-217h-6C748-76 648 20 446 20c-207 0-318-120-318-322 0-266 194-348 454-354l236-4c12-191-40-305-222-305-140 0-220 47-232 172l-188-17c33-204 181-292 423-292 255 0 401 118 401 364v466zm-683-27c0 109 63 184 175 182 166-3 259-96 306-217 24-65 20-120 20-200-232 7-501-28-501 235" id="r"/><path fill="#fff" d="M682 16c-209 0-323-80-324-285v-671H190v-142h170l58-282h120v282h432v142H538v652c2 114 60 155 182 155 106 0 209-16 297-34v137C921-4 806 16 682 16" id="s"/><path fill="#fff" d="M615-1102c343 0 484 203 482 560-1 347-147 562-488 562-336 0-475-219-479-562-4-349 156-560 485-560zm-8 989c240 0 301-180 301-429 0-245-55-427-290-427-236 0-299 181-299 427 0 243 61 429 288 429" id="t"/><path fill="#fff" d="M706-1102c241 0 344 136 343 381V0H868v-695c1-168-57-273-220-268-190 6-283 138-283 336V0H185c-3-360 6-732-6-1082h170c4 54 7 126 8 185h3c63-121 164-204 346-205" id="u"/><g id="a"><use transform="matrix(0.0087890625,0,0,0.0087890625,0,0)" xlink:href="#m"/><use transform="matrix(0.0087890625,0,0,0.0087890625,10.8017578125,0)" xlink:href="#n"/><use transform="matrix(0.0087890625,0,0,0.0087890625,21.603515625,0)" xlink:href="#n"/><use transform="matrix(0.0087890625,0,0,0.0087890625,32.4052734375,0)" xlink:href="#o"/><use transform="matrix(0.0087890625,0,0,0.0087890625,43.20703125,0)" xlink:href="#p"/><use transform="matrix(0.0087890625,0,0,0.0087890625,54.0087890625,0)" xlink:href="#q"/><use transform="matrix(0.0087890625,0,0,0.0087890625,64.810546875,0)" xlink:href="#r"/><use transform="matrix(0.0087890625,0,0,0.0087890625,75.6123046875,0)" xlink:href="#s"/><use transform="matrix(0.0087890625,0,0,0.0087890625,86.4140625,0)" xlink:href="#p"/><use transform="matrix(0.0087890625,0,0,0.0087890625,97.2158203125,0)" xlink:href="#t"/><use transform="matrix(0.0087890625,0,0,0.0087890625,108.017578125,0)" xlink:href="#u"/></g><path fill="#fff" d="M873-819c-18-114-119-146-250-146-163 0-245 50-245 151 0 151 170 148 294 185 182 54 388 94 388 320 0 240-189 325-439 329-245 4-410-69-454-268l159-31c24 133 136 168 295 165 144-2 270-31 270-171 0-164-195-160-331-202-167-52-350-87-350-299 0-218 173-315 413-313 220 2 373 77 412 260" id="v"/><path fill="#fff" d="M839-1102c70 0 148 7 206 17v167c-112-18-268-36-363 15-129 69-208 203-208 395V0H294c-10-367 32-789-52-1082h171c21 75 41 161 48 250h5c67-152 152-270 373-270" id="w"/><path fill="#fff" d="M528 20c-247 0-343-132-343-381v-721h180v686c-4 177 45 284 224 277 194-8 279-136 279-336v-627h181c3 360-6 732 6 1082H885c-4-54-7-126-8-185h-3C809-64 714 20 528 20" id="x"/><path fill="#fff" d="M617-1102c355 0 481 238 477 599H322c5 222 84 388 301 388 144 0 244-59 284-166l158 45C1002-72 854 20 623 20c-342 0-490-220-490-568 0-346 151-554 484-554zm291 461c-18-192-90-328-289-328-194 0-287 128-295 328h584" id="y"/><g id="b"><use transform="matrix(0.0087890625,0,0,0.0087890625,0,0)" xlink:href="#v"/><use transform="matrix(0.0087890625,0,0,0.0087890625,10.8017578125,0)" xlink:href="#s"/><use transform="matrix(0.0087890625,0,0,0.0087890625,21.603515625,0)" xlink:href="#w"/><use transform="matrix(0.0087890625,0,0,0.0087890625,32.4052734375,0)" xlink:href="#x"/><use transform="matrix(0.0087890625,0,0,0.0087890625,43.20703125,0)" xlink:href="#q"/><use transform="matrix(0.0087890625,0,0,0.0087890625,54.0087890625,0)" xlink:href="#s"/><use transform="matrix(0.0087890625,0,0,0.0087890625,64.810546875,0)" xlink:href="#x"/><use transform="matrix(0.0087890625,0,0,0.0087890625,75.6123046875,0)" xlink:href="#w"/><use transform="matrix(0.0087890625,0,0,0.0087890625,86.4140625,0)" xlink:href="#y"/></g><g id="c"><use transform="matrix(0.0087890625,0,0,0.0087890625,0,0)" xlink:href="#p"/><use transform="matrix(0.0087890625,0,0,0.0087890625,10.8017578125,0)" xlink:href="#u"/></g><g id="d"><use transform="matrix(0.0087890625,0,0,0.0087890625,0,0)" xlink:href="#t"/><use transform="matrix(0.0087890625,0,0,0.0087890625,10.8017578125,0)" xlink:href="#u"/><use transform="matrix(0.0087890625,0,0,0.0087890625,21.603515625,0)" xlink:href="#y"/></g><g id="e"><use transform="matrix(0.0087890625,0,0,0.0087890625,0,0)" xlink:href="#n"/><use transform="matrix(0.0087890625,0,0,0.0087890625,10.8017578125,0)" xlink:href="#o"/><use transform="matrix(0.0087890625,0,0,0.0087890625,21.603515625,0)" xlink:href="#r"/><use transform="matrix(0.0087890625,0,0,0.0087890625,32.4052734375,0)" xlink:href="#q"/><use transform="matrix(0.0087890625,0,0,0.0087890625,43.20703125,0)" xlink:href="#y"/></g><path fill="#fff" d="M162 0v-1349h919v156H353v422h668v154H353v461h769V0H162" id="z"/><path fill="#fff" d="M932 0L611-444 288 0H94l415-556-397-526h199l300 421 298-421h201L713-558 1133 0H932" id="A"/><g id="f"><use transform="matrix(0.0087890625,0,0,0.0087890625,0,0)" xlink:href="#z"/><use transform="matrix(0.0087890625,0,0,0.0087890625,10.8017578125,0)" xlink:href="#A"/><use transform="matrix(0.0087890625,0,0,0.0087890625,21.603515625,0)" xlink:href="#n"/><use transform="matrix(0.0087890625,0,0,0.0087890625,32.4052734375,0)" xlink:href="#o"/><use transform="matrix(0.0087890625,0,0,0.0087890625,43.20703125,0)" xlink:href="#p"/><use transform="matrix(0.0087890625,0,0,0.0087890625,54.0087890625,0)" xlink:href="#q"/><use transform="matrix(0.0087890625,0,0,0.0087890625,64.810546875,0)" xlink:href="#p"/><use transform="matrix(0.0087890625,0,0,0.0087890625,75.6123046875,0)" xlink:href="#s"/></g><path fill="#fff" d="M865-914c-3-187-2-380-2-570h180v1261c0 76 1 155 6 223H877c-8-49-9-116-10-174h-5C801-44 708 26 530 26c-135 0-234-46-297-139s-95-232-95-419c0-377 131-566 392-566 176 0 271 63 335 184zm-286-51c-222 0-255 197-255 427 0 229 31 425 253 425 237 0 286-195 286-441 0-238-52-411-284-411" id="B"/><g id="g"><use transform="matrix(0.0087890625,0,0,0.0087890625,0,0)" xlink:href="#B"/><use transform="matrix(0.0087890625,0,0,0.0087890625,10.8017578125,0)" xlink:href="#y"/><use transform="matrix(0.0087890625,0,0,0.0087890625,21.603515625,0)" xlink:href="#n"/><use transform="matrix(0.0087890625,0,0,0.0087890625,32.4052734375,0)" xlink:href="#y"/><use transform="matrix(0.0087890625,0,0,0.0087890625,43.20703125,0)" xlink:href="#u"/><use transform="matrix(0.0087890625,0,0,0.0087890625,54.0087890625,0)" xlink:href="#B"/><use transform="matrix(0.0087890625,0,0,0.0087890625,64.810546875,0)" xlink:href="#y"/><use transform="matrix(0.0087890625,0,0,0.0087890625,75.6123046875,0)" xlink:href="#u"/><use transform="matrix(0.0087890625,0,0,0.0087890625,86.4140625,0)" xlink:href="#q"/><use transform="matrix(0.0087890625,0,0,0.0087890625,97.2158203125,0)" xlink:href="#p"/><use transform="matrix(0.0087890625,0,0,0.0087890625,108.017578125,0)" xlink:href="#y"/><use transform="matrix(0.0087890625,0,0,0.0087890625,118.8193359375,0)" xlink:href="#v"/></g><path fill="#fff" d="M168 279c222 39 310-114 368-290L66-1082h192c120 299 249 590 362 896 115-301 235-597 351-896h190L705 0c-65 164-130 320-275 396-67 36-177 35-262 18V279" id="C"/><g id="h"><use transform="matrix(0.0087890625,0,0,0.0087890625,0,0)" xlink:href="#z"/><use transform="matrix(0.0087890625,0,0,0.0087890625,10.8017578125,0)" xlink:href="#r"/><use transform="matrix(0.0087890625,0,0,0.0087890625,21.603515625,0)" xlink:href="#v"/><use transform="matrix(0.0087890625,0,0,0.0087890625,32.4052734375,0)" xlink:href="#C"/></g><g id="i"><use transform="matrix(0.0087890625,0,0,0.0087890625,0,0)" xlink:href="#s"/><use transform="matrix(0.0087890625,0,0,0.0087890625,10.8017578125,0)" xlink:href="#t"/></g><g id="j"><use transform="matrix(0.0087890625,0,0,0.0087890625,0,0)" xlink:href="#x"/><use transform="matrix(0.0087890625,0,0,0.0087890625,10.8017578125,0)" xlink:href="#u"/><use transform="matrix(0.0087890625,0,0,0.0087890625,21.603515625,0)" xlink:href="#B"/><use transform="matrix(0.0087890625,0,0,0.0087890625,32.4052734375,0)" xlink:href="#y"/><use transform="matrix(0.0087890625,0,0,0.0087890625,43.20703125,0)" xlink:href="#w"/><use transform="matrix(0.0087890625,0,0,0.0087890625,54.0087890625,0)" xlink:href="#v"/><use transform="matrix(0.0087890625,0,0,0.0087890625,64.810546875,0)" xlink:href="#s"/><use transform="matrix(0.0087890625,0,0,0.0087890625,75.6123046875,0)" xlink:href="#r"/><use transform="matrix(0.0087890625,0,0,0.0087890625,86.4140625,0)" xlink:href="#u"/><use transform="matrix(0.0087890625,0,0,0.0087890625,97.2158203125,0)" xlink:href="#B"/></g><g id="k"><use transform="matrix(0.0087890625,0,0,0.0087890625,0,0)" xlink:href="#r"/><use transform="matrix(0.0087890625,0,0,0.0087890625,10.8017578125,0)" xlink:href="#u"/><use transform="matrix(0.0087890625,0,0,0.0087890625,21.603515625,0)" xlink:href="#B"/></g><path fill="#fff" d="M648-963c-190 6-283 138-283 336V0H185v-1484h181c-2 197 6 404-9 587h3c62-120 159-205 339-205 242 0 351 135 350 381V0H868v-695c1-168-57-273-220-268" id="D"/><path fill="#fff" d="M1048-32c-2 300-135 456-433 456-222-1-358-88-400-267l184-25c22 99 100 157 222 156 184-2 248-125 248-315 0-64 3-133-2-194C807-100 706-13 524-12c-306 0-381-228-381-537 0-318 85-550 400-550 164 0 271 83 325 202h3c1-60 3-134 12-185h171c-13 339-4 702-6 1050zM585-145c210-8 284-178 284-406 0-192-52-331-177-392-33-16-69-22-104-22-223 2-259 184-259 414 0 229 31 415 256 406" id="E"/><g id="l"><use transform="matrix(0.0087890625,0,0,0.0087890625,0,0)" xlink:href="#q"/><use transform="matrix(0.0087890625,0,0,0.0087890625,10.8017578125,0)" xlink:href="#D"/><use transform="matrix(0.0087890625,0,0,0.0087890625,21.603515625,0)" xlink:href="#r"/><use transform="matrix(0.0087890625,0,0,0.0087890625,32.4052734375,0)" xlink:href="#u"/><use transform="matrix(0.0087890625,0,0,0.0087890625,43.20703125,0)" xlink:href="#E"/><use transform="matrix(0.0087890625,0,0,0.0087890625,54.0087890625,0)" xlink:href="#y"/></g></defs></g></svg>
