<svg xmlns="http://www.w3.org/2000/svg" xmlns:xlink="http://www.w3.org/1999/xlink" xmlns:lucid="lucid" width="1000" height="178"><g transform="translate(-40 -40)" lucid:page-tab-id="0_0"><path d="M0 0h1323.2v1870.4H0z" fill="#fff"/><path d="M260 109h124V89l36 40-36 40v-20H260zM660 109h124V89l36 40-36 40v-20H660z" stroke="#000" stroke-opacity="0" stroke-width="2" fill="#ffeca9"/><path d="M60 129l40-69h80l40 69-40 69h-80z" stroke="#000" stroke-opacity="0" stroke-width="2" fill="#32a5ff"/><use xlink:href="#a" transform="matrix(1,0,0,1,65,65) translate(26.154999999999994 46.4)"/><use xlink:href="#b" transform="matrix(1,0,0,1,65,65) translate(7.179999999999987 68)"/><use xlink:href="#c" transform="matrix(1,0,0,1,65,65) translate(89.98 68)"/><use xlink:href="#d" transform="matrix(1,0,0,1,65,65) translate(110.93 68)"/><use xlink:href="#e" transform="matrix(1,0,0,1,65,65) translate(52.029999999999994 89.60000000000001)"/><path d="M460 129l40-69h80l40 69-40 69h-80z" stroke="#000" stroke-opacity="0" stroke-width="2" fill="#32a5ff"/><g><use xlink:href="#f" transform="matrix(1,0,0,1,465,65) translate(43.05499999999999 58.4)"/><use xlink:href="#g" transform="matrix(1,0,0,1,465,65) translate(15.12999999999999 80)"/></g><path d="M860 129l40-69h80l40 69-40 69h-80z" stroke="#000" stroke-opacity="0" stroke-width="2" fill="#32a5ff"/><g><use xlink:href="#h" transform="matrix(1,0,0,1,865,65) translate(43.055 46.4)"/><use xlink:href="#i" transform="matrix(1,0,0,1,865,65) translate(90.055 46.4)"/><use xlink:href="#j" transform="matrix(1,0,0,1,865,65) translate(7.704999999999993 68)"/><use xlink:href="#k" transform="matrix(1,0,0,1,865,65) translate(110.405 68)"/><use xlink:href="#l" transform="matrix(1,0,0,1,865,65) translate(43.57999999999999 89.60000000000001)"/></g><defs><path fill="#fff" d="M199 0l-22-63H83L61 0H9l90-248h61L250 0h-51zm-33-102l-36-108c-10 38-24 72-36 108h72" id="m"/><path fill="#fff" d="M135-194c53 0 70 44 70 98 0 56-19 98-73 100-31 1-45-17-59-34 3 33 2 69 2 105H25l-1-265h48c2 10 0 23 3 31 11-24 29-35 60-35zM114-30c33 0 39-31 40-66 0-38-9-64-40-64-56 0-55 130 0 130" id="n"/><path fill="#fff" d="M25 0v-261h50V0H25" id="o"/><path fill="#fff" d="M25-224v-37h50v37H25zM25 0v-190h50V0H25" id="p"/><path fill="#fff" d="M190-63c-7 42-38 67-86 67-59 0-84-38-90-98-12-110 154-137 174-36l-49 2c-2-19-15-32-35-32-30 0-35 28-38 64-6 74 65 87 74 30" id="q"/><path fill="#fff" d="M133-34C117-15 103 5 69 4 32 3 11-16 11-54c-1-60 55-63 116-61 1-26-3-47-28-47-18 1-26 9-28 27l-52-2c7-38 36-58 82-57s74 22 75 68l1 82c-1 14 12 18 25 15v27c-30 8-71 5-69-32zm-48 3c29 0 43-24 42-57-32 0-66-3-65 30 0 17 8 27 23 27" id="r"/><path fill="#fff" d="M115-3C79 11 28 4 28-45v-112H4v-33h27l15-45h31v45h36v33H77v99c-1 23 16 31 38 25v30" id="s"/><path fill="#fff" d="M110-194c64 0 96 36 96 99 0 64-35 99-97 99-61 0-95-36-95-99 0-62 34-99 96-99zm-1 164c35 0 45-28 45-65 0-40-10-65-43-65-34 0-45 26-45 65 0 36 10 65 43 65" id="t"/><path fill="#fff" d="M135-194c87-1 58 113 63 194h-50c-7-57 23-157-34-157-59 0-34 97-39 157H25l-1-190h47c2 12-1 28 3 38 12-26 28-41 61-42" id="u"/><g id="a"><use transform="matrix(0.05,0,0,0.05,0,0)" xlink:href="#m"/><use transform="matrix(0.05,0,0,0.05,12.950000000000001,0)" xlink:href="#n"/><use transform="matrix(0.05,0,0,0.05,23.900000000000002,0)" xlink:href="#n"/><use transform="matrix(0.05,0,0,0.05,34.85,0)" xlink:href="#o"/><use transform="matrix(0.05,0,0,0.05,39.85,0)" xlink:href="#p"/><use transform="matrix(0.05,0,0,0.05,44.85,0)" xlink:href="#q"/><use transform="matrix(0.05,0,0,0.05,54.85,0)" xlink:href="#r"/><use transform="matrix(0.05,0,0,0.05,64.85,0)" xlink:href="#s"/><use transform="matrix(0.05,0,0,0.05,70.8,0)" xlink:href="#p"/><use transform="matrix(0.05,0,0,0.05,75.8,0)" xlink:href="#t"/><use transform="matrix(0.05,0,0,0.05,86.75,0)" xlink:href="#u"/></g><path fill="#fff" d="M137-138c1-29-70-34-71-4 15 46 118 7 119 86 1 83-164 76-172 9l43-7c4 19 20 25 44 25 33 8 57-30 24-41C81-84 22-81 20-136c-2-80 154-74 161-7" id="v"/><path fill="#fff" d="M135-150c-39-12-60 13-60 57V0H25l-1-190h47c2 13-1 29 3 40 6-28 27-53 61-41v41" id="w"/><path fill="#fff" d="M85 4C-2 5 27-109 22-190h50c7 57-23 150 33 157 60-5 35-97 40-157h50l1 190h-47c-2-12 1-28-3-38-12 25-28 42-61 42" id="x"/><path fill="#fff" d="M185-48c-13 30-37 53-82 52C43 2 14-33 14-96s30-98 90-98c62 0 83 45 84 108H66c0 31 8 55 39 56 18 0 30-7 34-22zm-45-69c5-46-57-63-70-21-2 6-4 13-4 21h74" id="y"/><g id="b"><use transform="matrix(0.05,0,0,0.05,0,0)" xlink:href="#v"/><use transform="matrix(0.05,0,0,0.05,10,0)" xlink:href="#s"/><use transform="matrix(0.05,0,0,0.05,15.949999999999998,0)" xlink:href="#w"/><use transform="matrix(0.05,0,0,0.05,22.95,0)" xlink:href="#x"/><use transform="matrix(0.05,0,0,0.05,33.9,0)" xlink:href="#q"/><use transform="matrix(0.05,0,0,0.05,43.9,0)" xlink:href="#s"/><use transform="matrix(0.05,0,0,0.05,49.85,0)" xlink:href="#x"/><use transform="matrix(0.05,0,0,0.05,60.800000000000004,0)" xlink:href="#w"/><use transform="matrix(0.05,0,0,0.05,67.80000000000001,0)" xlink:href="#y"/></g><g id="c"><use transform="matrix(0.05,0,0,0.05,0,0)" xlink:href="#p"/><use transform="matrix(0.05,0,0,0.05,5,0)" xlink:href="#u"/></g><g id="d"><use transform="matrix(0.05,0,0,0.05,0,0)" xlink:href="#t"/><use transform="matrix(0.05,0,0,0.05,10.950000000000001,0)" xlink:href="#u"/><use transform="matrix(0.05,0,0,0.05,21.900000000000002,0)" xlink:href="#y"/></g><g id="e"><use transform="matrix(0.05,0,0,0.05,0,0)" xlink:href="#n"/><use transform="matrix(0.05,0,0,0.05,10.950000000000001,0)" xlink:href="#o"/><use transform="matrix(0.05,0,0,0.05,15.950000000000001,0)" xlink:href="#r"/><use transform="matrix(0.05,0,0,0.05,25.950000000000003,0)" xlink:href="#q"/><use transform="matrix(0.05,0,0,0.05,35.95,0)" xlink:href="#y"/></g><path fill="#fff" d="M24 0v-248h195v40H76v63h132v40H76v65h150V0H24" id="z"/><path fill="#fff" d="M144 0l-44-69L55 0H2l70-98-66-92h53l41 62 40-62h54l-67 91 71 99h-54" id="A"/><g id="f"><use transform="matrix(0.05,0,0,0.05,0,0)" xlink:href="#z"/><use transform="matrix(0.05,0,0,0.05,12,0)" xlink:href="#A"/><use transform="matrix(0.05,0,0,0.05,22,0)" xlink:href="#n"/><use transform="matrix(0.05,0,0,0.05,32.95,0)" xlink:href="#o"/><use transform="matrix(0.05,0,0,0.05,37.95,0)" xlink:href="#p"/><use transform="matrix(0.05,0,0,0.05,42.95,0)" xlink:href="#q"/><use transform="matrix(0.05,0,0,0.05,52.95,0)" xlink:href="#p"/><use transform="matrix(0.05,0,0,0.05,57.95,0)" xlink:href="#s"/></g><path fill="#fff" d="M88-194c31-1 46 15 58 34l-1-101h50l1 261h-48c-2-10 0-23-3-31C134-8 116 4 84 4 32 4 16-41 15-95c0-56 19-97 73-99zm17 164c33 0 40-30 41-66 1-37-9-64-41-64s-38 30-39 65c0 43 13 65 39 65" id="B"/><g id="g"><use transform="matrix(0.05,0,0,0.05,0,0)" xlink:href="#B"/><use transform="matrix(0.05,0,0,0.05,10.950000000000001,0)" xlink:href="#y"/><use transform="matrix(0.05,0,0,0.05,20.950000000000003,0)" xlink:href="#n"/><use transform="matrix(0.05,0,0,0.05,31.900000000000006,0)" xlink:href="#y"/><use transform="matrix(0.05,0,0,0.05,41.900000000000006,0)" xlink:href="#u"/><use transform="matrix(0.05,0,0,0.05,52.85,0)" xlink:href="#B"/><use transform="matrix(0.05,0,0,0.05,63.80000000000001,0)" xlink:href="#y"/><use transform="matrix(0.05,0,0,0.05,73.80000000000001,0)" xlink:href="#u"/><use transform="matrix(0.05,0,0,0.05,84.75000000000001,0)" xlink:href="#q"/><use transform="matrix(0.05,0,0,0.05,94.75000000000001,0)" xlink:href="#p"/><use transform="matrix(0.05,0,0,0.05,99.75000000000001,0)" xlink:href="#y"/><use transform="matrix(0.05,0,0,0.05,109.75,0)" xlink:href="#v"/></g><path fill="#fff" d="M123 10C108 53 80 86 19 72V37c35 8 53-11 59-39L3-190h52l48 148c12-52 28-100 44-148h51" id="C"/><g id="h"><use transform="matrix(0.05,0,0,0.05,0,0)" xlink:href="#z"/><use transform="matrix(0.05,0,0,0.05,12,0)" xlink:href="#r"/><use transform="matrix(0.05,0,0,0.05,22,0)" xlink:href="#v"/><use transform="matrix(0.05,0,0,0.05,32,0)" xlink:href="#C"/></g><g id="i"><use transform="matrix(0.05,0,0,0.05,0,0)" xlink:href="#s"/><use transform="matrix(0.05,0,0,0.05,5.95,0)" xlink:href="#t"/></g><g id="j"><use transform="matrix(0.05,0,0,0.05,0,0)" xlink:href="#x"/><use transform="matrix(0.05,0,0,0.05,10.950000000000001,0)" xlink:href="#u"/><use transform="matrix(0.05,0,0,0.05,21.900000000000002,0)" xlink:href="#B"/><use transform="matrix(0.05,0,0,0.05,32.85,0)" xlink:href="#y"/><use transform="matrix(0.05,0,0,0.05,42.85,0)" xlink:href="#w"/><use transform="matrix(0.05,0,0,0.05,49.85,0)" xlink:href="#v"/><use transform="matrix(0.05,0,0,0.05,59.85,0)" xlink:href="#s"/><use transform="matrix(0.05,0,0,0.05,65.8,0)" xlink:href="#r"/><use transform="matrix(0.05,0,0,0.05,75.8,0)" xlink:href="#u"/><use transform="matrix(0.05,0,0,0.05,86.75,0)" xlink:href="#B"/></g><g id="k"><use transform="matrix(0.05,0,0,0.05,0,0)" xlink:href="#r"/><use transform="matrix(0.05,0,0,0.05,10,0)" xlink:href="#u"/><use transform="matrix(0.05,0,0,0.05,20.950000000000003,0)" xlink:href="#B"/></g><path fill="#fff" d="M114-157C55-157 80-60 75 0H25v-261h50l-1 109c12-26 28-41 61-42 86-1 58 113 63 194h-50c-7-57 23-157-34-157" id="D"/><path fill="#fff" d="M195-6C206 82 75 100 31 46c-4-6-6-13-8-21l49-6c3 16 16 24 34 25 40 0 42-37 40-79-11 22-30 35-61 35-53 0-70-43-70-97 0-56 18-96 73-97 30 0 46 14 59 34l2-30h47zm-90-29c32 0 41-27 41-63 0-35-9-62-40-62-32 0-39 29-40 63 0 36 9 62 39 62" id="E"/><g id="l"><use transform="matrix(0.05,0,0,0.05,0,0)" xlink:href="#q"/><use transform="matrix(0.05,0,0,0.05,10,0)" xlink:href="#D"/><use transform="matrix(0.05,0,0,0.05,20.950000000000003,0)" xlink:href="#r"/><use transform="matrix(0.05,0,0,0.05,30.950000000000003,0)" xlink:href="#u"/><use transform="matrix(0.05,0,0,0.05,41.900000000000006,0)" xlink:href="#E"/><use transform="matrix(0.05,0,0,0.05,52.85,0)" xlink:href="#y"/></g></defs></g></svg>
