<svg xmlns="http://www.w3.org/2000/svg" xmlns:xlink="http://www.w3.org/1999/xlink" xmlns:lucid="lucid" width="923.33" height="391.72"><g transform="translate(-77.33333333333348 -410.02284404752015)" lucid:page-tab-id="E~-arWoaNQC0"><path d="M0 0h1323.2v1870.4H0z" fill="#fff"/><path d="M555.24 689h-144.4l-48.13-90.25 48.14-90.25h144.4l48.13 90.25z" stroke="#fff" stroke-width="2" fill="#32a5ff"/><use xlink:href="#a" transform="matrix(1,-2.4492935982947064e-16,2.4492935982947064e-16,1,367.70802388688946,513.5000000000001) translate(66.39208984375 89.208984375)"/><path d="M339.08 596l-82.4 43.36-.15-46.3-.12-39.06zM717.08 596L668 621.8l-33.33 17.56-.14-46.3-.12-39.06z" fill="#ffeca9"/><path d="M205.6 649.5h-81.2l-27.07-50.75L124.4 548h81.2l27.07 50.75z" stroke="#fff" stroke-width="2" fill="#32a5ff"/><use xlink:href="#b" transform="matrix(1,-2.4492935982947064e-16,2.4492935982947064e-16,1,102.33333333333346,553) translate(13.897089843750004 43.146484375)"/><use xlink:href="#c" transform="matrix(1,-2.4492935982947064e-16,2.4492935982947064e-16,1,102.33333333333346,553) translate(57.10412109375 43.146484375)"/><use xlink:href="#d" transform="matrix(1,-2.4492935982947064e-16,2.4492935982947064e-16,1,102.33333333333346,553) translate(40.901484375 61.146484375)"/><path d="M339.08 478l-82.4 43.38-.15-46.3-.12-39.06z" fill="#ffeca9"/><path d="M205.6 531.52h-81.2l-27.07-50.75 27.07-50.75h81.2l27.07 50.75z" stroke="#fff" stroke-width="2" fill="#32a5ff"/><use xlink:href="#e" transform="matrix(1,-2.4492935982947064e-16,2.4492935982947064e-16,1,102.33333333333347,435.02284404752004) translate(19.297968749999995 43.146484375)"/><use xlink:href="#f" transform="matrix(1,-2.4492935982947064e-16,2.4492935982947064e-16,1,102.33333333333347,435.02284404752004) translate(46.30236328125 61.146484375)"/><path d="M339.08 714l-82.4 43.36-.15-46.3-.12-39.06z" fill="#ffeca9"/><path d="M205.6 765.24h-81.2L97.33 714.5l27.07-50.76h81.2l27.07 50.75z" stroke="#fff" stroke-width="2" fill="#32a5ff"/><use xlink:href="#g" transform="matrix(1,-2.4492935982947064e-16,2.4492935982947064e-16,1,102.33333333333348,668.7385779762399) translate(30.099726562499995 43.146484375)"/><use xlink:href="#h" transform="matrix(1,-2.4492935982947064e-16,2.4492935982947064e-16,1,102.33333333333348,668.7385779762399) translate(35.50060546875 61.146484375)"/><g><path d="M932.53 689h-144.4L740 598.75l48.13-90.25h144.4l48.14 90.25z" stroke="#fff" stroke-width="2" fill="#32a5ff"/></g><g><use xlink:href="#i" transform="matrix(1,-2.4492935982947064e-16,2.4492935982947064e-16,1,744.9999999999998,513.5) translate(55.59033203125 89.208984375)"/></g><defs><path fill="#fff" d="M650-1214c-281 0-336 244-336 533 0 295 60 546 347 546 188 0 263-142 322-282l159 65C1058-155 935 20 659 20c-401 0-546-295-546-701 0-407 135-689 536-689 264 0 391 146 466 335l-168 65c-47-129-127-244-297-244" id="j"/><path fill="#fff" d="M615-1102c343 0 484 203 482 560-1 347-147 562-488 562-336 0-475-219-479-562-4-349 156-560 485-560zm-8 989c240 0 301-180 301-429 0-245-55-427-290-427-236 0-299 181-299 427 0 243 61 429 288 429" id="k"/><path fill="#fff" d="M706-1102c241 0 344 136 343 381V0H868v-695c1-168-57-273-220-268-190 6-283 138-283 336V0H185c-3-360 6-732-6-1082h170c4 54 7 126 8 185h3c63-121 164-204 346-205" id="l"/><path fill="#fff" d="M682 16c-209 0-323-80-324-285v-671H190v-142h170l58-282h120v282h432v142H538v652c2 114 60 155 182 155 106 0 209-16 297-34v137C921-4 806 16 682 16" id="m"/><path fill="#fff" d="M1000-272c3 95 12 159 101 161 21 0 41-3 59-7V-6c-44 10-86 16-139 16-141 2-191-84-197-217h-6C748-76 648 20 446 20c-207 0-318-120-318-322 0-266 194-348 454-354l236-4c12-191-40-305-222-305-140 0-220 47-232 172l-188-17c33-204 181-292 423-292 255 0 401 118 401 364v466zm-683-27c0 109 63 184 175 182 166-3 259-96 306-217 24-65 20-120 20-200-232 7-501-28-501 235" id="n"/><path fill="#fff" d="M745-142h380V0H143v-142h422v-798H246v-142h499v940zM545-1292v-192h200v192H545" id="o"/><path fill="#fff" d="M617-1102c355 0 481 238 477 599H322c5 222 84 388 301 388 144 0 244-59 284-166l158 45C1002-72 854 20 623 20c-342 0-490-220-490-568 0-346 151-554 484-554zm291 461c-18-192-90-328-289-328-194 0-287 128-295 328h584" id="p"/><path fill="#fff" d="M839-1102c70 0 148 7 206 17v167c-112-18-268-36-363 15-129 69-208 203-208 395V0H294c-10-367 32-789-52-1082h171c21 75 41 161 48 250h5c67-152 152-270 373-270" id="q"/><g id="a"><use transform="matrix(0.0087890625,0,0,0.0087890625,0,0)" xlink:href="#j"/><use transform="matrix(0.0087890625,0,0,0.0087890625,10.8017578125,0)" xlink:href="#k"/><use transform="matrix(0.0087890625,0,0,0.0087890625,21.603515625,0)" xlink:href="#l"/><use transform="matrix(0.0087890625,0,0,0.0087890625,32.4052734375,0)" xlink:href="#m"/><use transform="matrix(0.0087890625,0,0,0.0087890625,43.20703125,0)" xlink:href="#n"/><use transform="matrix(0.0087890625,0,0,0.0087890625,54.0087890625,0)" xlink:href="#o"/><use transform="matrix(0.0087890625,0,0,0.0087890625,64.810546875,0)" xlink:href="#l"/><use transform="matrix(0.0087890625,0,0,0.0087890625,75.6123046875,0)" xlink:href="#p"/><use transform="matrix(0.0087890625,0,0,0.0087890625,86.4140625,0)" xlink:href="#q"/></g><path fill="#fff" d="M1060-1016c0 191-128 285-295 323v4c154 18 262 91 313 209 14 35 21 72 21 110 0 277-194 390-478 390-292 0-457-129-493-382l186-17c24 161 121 250 307 250 172 1 298-80 291-247-8-208-220-239-446-233v-156c217 9 409-34 409-232 0-152-102-225-264-225-159 0-264 88-278 233l-181-14c33-239 196-367 461-367 264 0 447 102 447 354" id="r"/><path fill="#fff" d="M865-914c-3-187-2-380-2-570h180v1261c0 76 1 155 6 223H877c-8-49-9-116-10-174h-5C801-44 708 26 530 26c-135 0-234-46-297-139s-95-232-95-419c0-377 131-566 392-566 176 0 271 63 335 184zm-286-51c-222 0-255 197-255 427 0 229 31 425 253 425 237 0 286-195 286-441 0-238-52-411-284-411" id="s"/><g id="b"><use transform="matrix(0.0087890625,0,0,0.0087890625,0,0)" xlink:href="#r"/><use transform="matrix(0.0087890625,0,0,0.0087890625,10.8017578125,0)" xlink:href="#q"/><use transform="matrix(0.0087890625,0,0,0.0087890625,21.603515625,0)" xlink:href="#s"/></g><path fill="#fff" d="M698-1104c312 3 392 244 392 558 0 315-82 566-392 566-169 0-277-65-331-184h-5c8 188 2 394 4 589H185V-858c0-76-1-156-6-224h175c6 52 9 120 10 178h4c58-122 150-202 330-200zm-49 991c225 0 255-203 255-433 0-225-32-419-253-419-236 0-285 192-285 441 0 237 53 411 283 411" id="t"/><path fill="#fff" d="M168 279c222 39 310-114 368-290L66-1082h192c120 299 249 590 362 896 115-301 235-597 351-896h190L705 0c-65 164-130 320-275 396-67 36-177 35-262 18V279" id="u"/><g id="c"><use transform="matrix(0.0087890625,0,0,0.0087890625,0,0)" xlink:href="#t"/><use transform="matrix(0.0087890625,0,0,0.0087890625,10.8017578125,0)" xlink:href="#n"/><use transform="matrix(0.0087890625,0,0,0.0087890625,21.603515625,0)" xlink:href="#q"/><use transform="matrix(0.0087890625,0,0,0.0087890625,32.4052734375,0)" xlink:href="#m"/><use transform="matrix(0.0087890625,0,0,0.0087890625,43.20703125,0)" xlink:href="#u"/></g><path fill="#fff" d="M736-142h380V0H134v-142h422v-1200H267v-142h469v1342" id="v"/><path fill="#fff" d="M365-904c58-129 161-200 334-200 130 0 228 46 293 138s98 233 98 420c0 189-34 331-102 425S824 20 698 20c-170 0-275-64-336-184 0 55-3 116-9 164H179c5-68 6-147 6-223v-1261h180c-2 193 4 394-4 580h4zm283 791c221 0 256-197 256-427 0-229-34-425-254-425-236 0-285 195-285 441 0 237 53 411 283 411" id="w"/><path fill="#fff" d="M873-819c-18-114-119-146-250-146-163 0-245 50-245 151 0 151 170 148 294 185 182 54 388 94 388 320 0 240-189 325-439 329-245 4-410-69-454-268l159-31c24 133 136 168 295 165 144-2 270-31 270-171 0-164-195-160-331-202-167-52-350-87-350-299 0-218 173-315 413-313 220 2 373 77 412 260" id="x"/><g id="d"><use transform="matrix(0.0087890625,0,0,0.0087890625,0,0)" xlink:href="#v"/><use transform="matrix(0.0087890625,0,0,0.0087890625,10.8017578125,0)" xlink:href="#o"/><use transform="matrix(0.0087890625,0,0,0.0087890625,21.603515625,0)" xlink:href="#w"/><use transform="matrix(0.0087890625,0,0,0.0087890625,32.4052734375,0)" xlink:href="#x"/></g><path fill="#fff" d="M614-1226c-167 1-283 53-283 213 0 183 186 193 334 234 230 63 463 120 463 409 0 286-219 387-518 390C309 23 131-98 79-338l185-37c34 165 149 248 351 246 184-2 324-58 324-238 0-203-207-221-372-266-210-57-422-111-422-377 0-267 201-356 470-360 279-5 430 101 480 324l-188 33c-28-141-121-215-293-213" id="y"/><g id="e"><use transform="matrix(0.0087890625,0,0,0.0087890625,0,0)" xlink:href="#y"/><use transform="matrix(0.0087890625,0,0,0.0087890625,10.8017578125,0)" xlink:href="#m"/><use transform="matrix(0.0087890625,0,0,0.0087890625,21.603515625,0)" xlink:href="#n"/><use transform="matrix(0.0087890625,0,0,0.0087890625,32.4052734375,0)" xlink:href="#l"/><use transform="matrix(0.0087890625,0,0,0.0087890625,43.20703125,0)" xlink:href="#s"/><use transform="matrix(0.0087890625,0,0,0.0087890625,54.0087890625,0)" xlink:href="#n"/><use transform="matrix(0.0087890625,0,0,0.0087890625,64.810546875,0)" xlink:href="#q"/><use transform="matrix(0.0087890625,0,0,0.0087890625,75.6123046875,0)" xlink:href="#s"/></g><g id="f"><use transform="matrix(0.0087890625,0,0,0.0087890625,0,0)" xlink:href="#v"/><use transform="matrix(0.0087890625,0,0,0.0087890625,10.8017578125,0)" xlink:href="#o"/><use transform="matrix(0.0087890625,0,0,0.0087890625,21.603515625,0)" xlink:href="#w"/></g><path fill="#fff" d="M473-1349c438-1 655 221 652 661C1122-268 945-8 532 0H162v-1349h311zm42 1193c308-4 416-205 418-532 2-330-131-509-459-505H353v1037h162" id="z"/><path fill="#fff" d="M904-1102c199 0 220 177 220 381V0H956v-686c-3-114 0-215-60-264-70-33-125-4-158 71-26 56-39 140-39 252V0H531v-686c-3-114-1-215-61-264-78-41-136 24-157 84-24 69-39 159-39 259V0H105c-3-360 6-732-6-1082h149c6 50 3 123 8 175 36-100 83-195 216-195 135 0 166 79 196 196 42-105 93-196 236-196" id="A"/><g id="g"><use transform="matrix(0.0087890625,0,0,0.0087890625,0,0)" xlink:href="#z"/><use transform="matrix(0.0087890625,0,0,0.0087890625,10.8017578125,0)" xlink:href="#k"/><use transform="matrix(0.0087890625,0,0,0.0087890625,21.603515625,0)" xlink:href="#A"/><use transform="matrix(0.0087890625,0,0,0.0087890625,32.4052734375,0)" xlink:href="#n"/><use transform="matrix(0.0087890625,0,0,0.0087890625,43.20703125,0)" xlink:href="#o"/><use transform="matrix(0.0087890625,0,0,0.0087890625,54.0087890625,0)" xlink:href="#l"/></g><path fill="#fff" d="M1048-32c-2 300-135 456-433 456-222-1-358-88-400-267l184-25c22 99 100 157 222 156 184-2 248-125 248-315 0-64 3-133-2-194C807-100 706-13 524-12c-306 0-381-228-381-537 0-318 85-550 400-550 164 0 271 83 325 202h3c1-60 3-134 12-185h171c-13 339-4 702-6 1050zM585-145c210-8 284-178 284-406 0-192-52-331-177-392-33-16-69-22-104-22-223 2-259 184-259 414 0 229 31 415 256 406" id="B"/><path fill="#fff" d="M631 20c-350 0-501-215-501-562 0-355 162-560 502-560 250 0 399 118 446 323l-192 14c-23-124-109-196-262-196-242 0-305 171-305 415 1 245 61 427 304 427 151 0 248-77 267-215l190 12C1039-107 883 20 631 20" id="C"/><g id="h"><use transform="matrix(0.0087890625,0,0,0.0087890625,0,0)" xlink:href="#v"/><use transform="matrix(0.0087890625,0,0,0.0087890625,10.8017578125,0)" xlink:href="#k"/><use transform="matrix(0.0087890625,0,0,0.0087890625,21.603515625,0)" xlink:href="#B"/><use transform="matrix(0.0087890625,0,0,0.0087890625,32.4052734375,0)" xlink:href="#o"/><use transform="matrix(0.0087890625,0,0,0.0087890625,43.20703125,0)" xlink:href="#C"/></g><path fill="#fff" d="M1034 0L896-382H333L196 0H0l510-1349h217L1228 0h-194zM847-531c-77-225-157-447-231-674-69 231-154 451-232 674h463" id="D"/><g id="i"><use transform="matrix(0.0087890625,0,0,0.0087890625,0,0)" xlink:href="#D"/><use transform="matrix(0.0087890625,0,0,0.0087890625,10.8017578125,0)" xlink:href="#t"/><use transform="matrix(0.0087890625,0,0,0.0087890625,21.603515625,0)" xlink:href="#t"/><use transform="matrix(0.0087890625,0,0,0.0087890625,32.4052734375,0)" xlink:href="#v"/><use transform="matrix(0.0087890625,0,0,0.0087890625,43.20703125,0)" xlink:href="#o"/><use transform="matrix(0.0087890625,0,0,0.0087890625,54.0087890625,0)" xlink:href="#C"/><use transform="matrix(0.0087890625,0,0,0.0087890625,64.810546875,0)" xlink:href="#n"/><use transform="matrix(0.0087890625,0,0,0.0087890625,75.6123046875,0)" xlink:href="#m"/><use transform="matrix(0.0087890625,0,0,0.0087890625,86.4140625,0)" xlink:href="#o"/><use transform="matrix(0.0087890625,0,0,0.0087890625,97.2158203125,0)" xlink:href="#k"/><use transform="matrix(0.0087890625,0,0,0.0087890625,108.017578125,0)" xlink:href="#l"/></g></defs></g></svg>