<svg xmlns="http://www.w3.org/2000/svg" xmlns:xlink="http://www.w3.org/1999/xlink" xmlns:lucid="lucid" width="2223.13" height="510.54"><g transform="translate(-2589 -108.99999999999991)" lucid:page-tab-id="ZMF~os5AxIV0"><path d="M2518.4 0h2582.4v1870.4H2518.4z" fill="#fff"/><path d="M2897.13 533.1h-192l-64-120 64-120h192l64 120z" stroke="#fff" stroke-width="2" fill="#66b2ff"/><path d="M2869.13 498.1h-136l-45.33-85 45.33-85h136l45.34 85z" stroke="#fff" stroke-width="2" fill="#fff"/><path d="M2806.13 415l90-125 65 125z" fill="#fff"/><path d="M2834.34 401l73.62-103.9 53.17 103.9z" fill="#ffeca9"/><path d="M3177.13 401h-192l-64-120 64-120h192l64 120z" stroke="#fff" stroke-width="2" fill="#66b2ff"/><path d="M3149.13 365h-136l-45.33-85 45.33-85h136l45.34 85z" stroke="#fff" stroke-width="2" fill="#fff"/><path d="M2941.13 401h1820v167.54h-1820z" stroke="#000" stroke-opacity="0" stroke-width="2" fill="#fff" fill-opacity="0"/><use xlink:href="#a" transform="matrix(1,0,0,1,2946.133333333333,406) translate(42.2596028645861 121.03710937499962)"/><use xlink:href="#b" transform="matrix(1,0,0,1,2946.133333333333,406) translate(1041.2221679687495 121.03710937499962)"/><path d="M3851.13 569.54v39h-1050V552.6" stroke="#66b2ff" stroke-width="2" fill="none"/><path d="M3852.13 569.57h-2v-1.03h2z" fill="#66b2ff"/><path d="M2801.13 537.32l4.64 14.27h-9.27z" stroke="#66b2ff" stroke-width="2" fill="#66b2ff"/><path d="M3851.13 400V281h-590.36" stroke="#66b2ff" stroke-width="2" fill="none"/><path d="M3852.13 401h-2v-1.03h2z" fill="#66b2ff"/><path d="M3245.5 281l14.27-4.64v9.28z" stroke="#66b2ff" stroke-width="2" fill="#66b2ff"/><path d="M4762.13 484.77h39V120h-1720v21.5" stroke="#66b2ff" stroke-width="2" fill="none"/><path d="M4762.16 485.77h-1.03v-2h1.03z" fill="#66b2ff"/><path d="M3081.13 156.76l-4.63-14.26h9.27z" stroke="#66b2ff" stroke-width="2" fill="#66b2ff"/><path d="M4762.13 484.77h39v123.77H2600V413.1h21.5" stroke="#66b2ff" stroke-width="2" fill="none"/><path d="M4762.16 485.77h-1.03v-2h1.03z" fill="#66b2ff"/><path d="M2636.76 413.1l-14.26 4.62v-9.27z" stroke="#66b2ff" stroke-width="2" fill="#66b2ff"/><defs><path fill="#66b2ff" d="M496-1349c439 0 656 222 653 664C1146-265 969 0 556 0H135v-1349h361zm36 1121c245-7 319-187 320-457 1-273-91-439-361-436h-61v893h102" id="c"/><path fill="#66b2ff" d="M1113-274C1038-96 884 20 626 20c-352 0-526-209-526-566 0-358 185-556 530-556 358 0 496 251 499 615H395c5 180 68 319 245 319 102 0 186-45 208-129zM857-663c-6-177-128-307-315-247-94 30-141 121-145 247h460" id="d"/><path fill="#66b2ff" d="M427-171c3 195 2 397 2 596H148V-846c1-83-4-168-8-236h272c10 49 14 118 15 176h4c59-114 151-197 316-197 291 0 385 259 385 560 0 243-65 433-220 521-50 28-109 42-176 42-162-2-253-78-309-191zm69-661c-91 113-92 463-1 586 46 62 145 101 225 54 96-57 118-191 119-351 0-123-18-215-53-276-46-82-128-115-220-74-25 12-48 33-70 61" id="e"/><path fill="#66b2ff" d="M768-1103c247 0 336 167 336 416V0H824v-619c-3-164-24-273-171-273-164 0-229 142-229 312V0H143c-4-359 9-736-8-1082h268c7 63 12 146 13 215h4c67-145 160-236 348-236" id="f"/><path fill="#66b2ff" d="M802-909c-3-189-2-383-2-575h281v1248c-1 83 4 168 8 236H817c-9-50-14-117-15-176h-4C735-49 651 20 482 20 191 20 97-238 97-539c0-243 66-432 221-519 50-28 108-42 175-42 162 2 253 78 309 191zm-70 658c91-113 93-462 2-584-46-61-145-100-224-53-96 56-119 190-120 349 0 123 17 214 52 275 46 82 130 115 222 74 25-12 46-33 68-61" id="g"/><path fill="#66b2ff" d="M1109-360C1066-122 902 20 624 20c-347 0-514-209-514-555 0-353 168-567 518-567 270 0 425 136 473 361l-283 14c-16-106-75-183-196-182-75 0-130 31-165 93s-52 152-52 270c0 249 74 374 221 374 120 0 188-82 201-201" id="h"/><path fill="#66b2ff" d="M143 212c82 12 185 12 233-31 50-45 83-117 110-192L38-1082h297c100 284 211 557 291 861 72-305 176-578 270-861h294L742 57c-80 192-156 368-417 368-60 0-131-4-182-13V212" id="i"/><g id="a"><use transform="matrix(0.07389322916666644,0,0,0.07389322916666644,0,0)" xlink:href="#c"/><use transform="matrix(0.07389322916666644,0,0,0.07389322916666644,90.81477864583304,0)" xlink:href="#d"/><use transform="matrix(0.07389322916666644,0,0,0.07389322916666644,181.6295572916661,0)" xlink:href="#e"/><use transform="matrix(0.07389322916666644,0,0,0.07389322916666644,272.44433593749915,0)" xlink:href="#d"/><use transform="matrix(0.07389322916666644,0,0,0.07389322916666644,363.2591145833322,0)" xlink:href="#f"/><use transform="matrix(0.07389322916666644,0,0,0.07389322916666644,454.07389322916515,0)" xlink:href="#g"/><use transform="matrix(0.07389322916666644,0,0,0.07389322916666644,544.8886718749983,0)" xlink:href="#d"/><use transform="matrix(0.07389322916666644,0,0,0.07389322916666644,635.7034505208313,0)" xlink:href="#f"/><use transform="matrix(0.07389322916666644,0,0,0.07389322916666644,726.5182291666644,0)" xlink:href="#h"/><use transform="matrix(0.07389322916666644,0,0,0.07389322916666644,817.3330078124974,0)" xlink:href="#i"/></g><path fill="#66b2ff" d="M157-1349h916v228H757v893h316V0H157v-228h316v-893H157v-228" id="j"/><path fill="#66b2ff" d="M380 206c143 0 202-71 202-216v-882H228v-190h636V13c-6 279-184 412-459 412-107 0-208-16-288-43V172c69 16 169 34 263 34zm203-1483v-207h281v207H583" id="k"/><path fill="#66b2ff" d="M711 13c-250 0-386-99-385-349l2-556H161v-190h181l88-282h176v282h385v190H606v530c-10 130 45 186 174 184 91-2 176-11 255-27v186C933-1 833 13 711 13" id="l"/><path fill="#66b2ff" d="M616-1102c361 0 521 202 521 560 0 354-171 562-527 562C259 20 92-192 92-542c0-351 169-560 524-560zm-9 930c200-2 236-165 236-370 0-199-27-367-223-367-195 0-233 146-233 367 0 129 18 223 55 282s92 88 165 88" id="m"/><path fill="#66b2ff" d="M875-1102c70 0 148 7 206 17v237c-110-17-267-37-359 15-123 69-192 207-192 395V0H250c-10-367 32-789-52-1082h271c19 69 36 149 46 228h4c52-151 151-250 356-248" id="n"/><g id="b"><use transform="matrix(0.07389322916666644,0,0,0.07389322916666644,0,0)" xlink:href="#j"/><use transform="matrix(0.07389322916666644,0,0,0.07389322916666644,90.81477864583304,0)" xlink:href="#f"/><use transform="matrix(0.07389322916666644,0,0,0.07389322916666644,181.6295572916661,0)" xlink:href="#k"/><use transform="matrix(0.07389322916666644,0,0,0.07389322916666644,272.44433593749915,0)" xlink:href="#d"/><use transform="matrix(0.07389322916666644,0,0,0.07389322916666644,363.2591145833322,0)" xlink:href="#h"/><use transform="matrix(0.07389322916666644,0,0,0.07389322916666644,454.07389322916515,0)" xlink:href="#l"/><use transform="matrix(0.07389322916666644,0,0,0.07389322916666644,544.8886718749983,0)" xlink:href="#m"/><use transform="matrix(0.07389322916666644,0,0,0.07389322916666644,635.7034505208313,0)" xlink:href="#n"/></g></defs></g></svg>